<svg width="114" height="168" fill="none" xmlns="http://www.w3.org/2000/svg"><path d="M80.53 63.658c17.752 9.02 29.875 27.494 29.875 48.782 0 30.237-24.535 54.772-54.771 54.772-30.237 0-54.772-24.535-54.772-54.772 0-20.783 11.546-38.896 28.649-48.133a54.84 54.84 0 0 1 26.123-6.639 54.634 54.634 0 0 1 24.896 5.99z" fill="#E3E3E3"/><path d="M55.634 164.903c-14 0-27.206-5.485-37.092-15.371C8.655 139.646 3.17 126.44 3.17 112.44c0-19.267 10.536-36.947 27.494-46.184 7.65-4.114 16.309-6.35 25.04-6.35 8.372 0 16.454 1.948 23.815 5.7a52.462 52.462 0 0 1 20.71 18.98c5.196 8.298 7.938 17.896 7.938 27.782 0 14-5.484 27.205-15.37 37.092-9.959 10.031-23.165 15.443-37.164 15.443z" fill="#C9C9C9"/><path d="M55.634 158.552c-12.34 0-23.886-4.762-32.618-13.494C14.284 136.326 9.52 124.78 9.52 112.44c0-16.886 9.237-32.473 24.103-40.556a46.56 46.56 0 0 1 22.01-5.556c7.36 0 14.432 1.66 20.927 5.051 7.433 3.825 13.71 9.598 18.185 16.67a46.097 46.097 0 0 1 7 24.391c0 12.34-4.763 23.886-13.495 32.618-8.731 8.66-20.278 13.494-32.617 13.494z" stroke="#929292" stroke-width="1.9582" stroke-miterlimit="10"/><path d="M55.634 143.687c-8.371 0-16.165-3.248-22.082-9.165-5.918-5.917-9.165-13.783-9.165-22.082a31.272 31.272 0 0 1 16.381-27.494 31.42 31.42 0 0 1 14.938-3.752c4.979 0 9.814 1.154 14.216 3.391a31.597 31.597 0 0 1 12.34 11.33c3.103 4.979 4.763 10.68 4.763 16.525 0 8.371-3.248 16.165-9.165 22.082-6.062 5.917-13.856 9.165-22.226 9.165z" stroke="#C9C9C9" stroke-width="1.3987" stroke-miterlimit="10"/><path d="M55.634 150.47c-10.175 0-19.701-3.969-26.917-11.185-7.217-7.216-11.113-16.742-11.113-26.917 0-14 7.649-26.773 19.917-33.484a37.973 37.973 0 0 1 18.113-4.618c6.061 0 11.906 1.37 17.319 4.113a38.854 38.854 0 0 1 15.01 13.783c3.752 6.062 5.773 12.99 5.773 20.134 0 10.175-3.97 19.7-11.186 26.917-7.216 7.288-16.741 11.257-26.916 11.257z" stroke="#929292" stroke-width="1.9582" stroke-miterlimit="10"/><path d="M77.86 53.772a27.121 27.121 0 0 1 2.31 9.814c-7.434-3.825-15.949-5.99-24.897-5.99-9.454 0-18.33 2.382-26.123 6.64.072-3.609.794-7.217 2.309-10.465l.722-1.515c.793-1.732 2.38-2.959 4.257-3.175l2.02-.289a116.032 116.032 0 0 1 32.402 0l2.02.289c1.877.288 3.464 1.443 4.258 3.175l.722 1.516zm-5.484 1.515v-2.02a1.11 1.11 0 0 0-1.083-1.083H38.026a1.11 1.11 0 0 0-1.083 1.082v2.02a1.11 1.11 0 0 0 1.083 1.083h33.267a1.11 1.11 0 0 0 1.082-1.082z" fill="#C9C9C9"/><path d="M89.406.01L70.427 52.978H59.891L78.798.01h10.608zM78.798.01L59.89 52.978H49.428L68.406.01h10.392z" fill="#092A5E"/><path d="M68.406.01L49.427 52.978H38.82L57.8.01h10.607z" fill="#092A5E"/><path d="M105.898 119.661c3.999-16.788-6.369-33.638-23.156-37.637-16.788-3.998-33.639 6.37-37.637 23.157-3.998 16.788 6.37 33.638 23.157 37.637 16.787 3.998 33.638-6.369 37.636-23.157z" fill="#9A9898"/><path d="M19.84.01l18.98 52.968h10.535L30.45.01H19.84z" fill="#70CBF4"/><path d="M30.449.01l18.906 52.968h10.392L40.84.01H30.45z" fill="#70CBF4"/><path d="M40.84.01l18.907 52.968h10.68L51.448.01H40.84z" fill="#70CBF4"/><path d="M104.257 117.647c2.884-15.881-7.652-31.094-23.533-33.978C64.843 80.784 49.63 91.32 46.745 107.2c-2.884 15.882 7.652 31.094 23.533 33.979 15.882 2.884 31.094-7.652 33.979-23.533z" fill="#E3E3E3"/><path d="M97.173 117.332c2.718-11.97-4.784-23.878-16.754-26.595-11.971-2.718-23.878 4.783-26.596 16.754-2.718 11.97 4.783 23.878 16.754 26.596 11.97 2.717 23.878-4.784 26.596-16.755zM49.211 102.698c0 .144 0 2.093.505 3.392.505 1.371.072 3.391.072 3.391s-1.37-1.587-1.443-2.67c-.144-1.443.866-4.041.866-4.113z" fill="#929292"/><path d="M49.572 103.853c.36.866.794 1.515 1.154 2.525.217.578-.072 2.093-.505 2.743-.144.288-.36.433-.36.433s.433-2.093-.073-3.392c-.505-1.299-.505-3.247-.505-3.392-.072 0 .072.578.289 1.083z" fill="#E6E6E6"/><path d="M53.757 104.574c-.072.072-1.37 1.588-1.876 2.815-.505 1.371-2.165 2.598-2.165 2.598s0-2.093.65-3.031c.866-1.011 3.32-2.382 3.391-2.382z" fill="#929292"/><path d="M53.252 105.657c-.288.866-.433 1.659-.866 2.67-.216.577-1.443 1.515-2.165 1.66-.288.144-.505.072-.505.072s1.66-1.299 2.165-2.598c.505-1.299 1.804-2.742 1.876-2.815 0 0-.36.506-.505 1.011z" fill="#E6E6E6"/><path d="M47.984 107.461c0 .144.289 2.093.938 3.247.722 1.227.578 3.392.578 3.392s-1.588-1.371-1.877-2.454c-.216-1.371.361-4.113.361-4.185z" fill="#929292"/><path d="M48.49 108.543c.505.794 1.01 1.371 1.515 2.309.288.578.216 2.093-.145 2.743-.072.288-.288.433-.288.433s.144-2.093-.577-3.392c-.65-1.227-.939-3.103-.939-3.247 0 .144.145.721.433 1.154z" fill="#E6E6E6"/><path d="M52.82 108.615c-.073.145-1.155 1.732-1.444 3.103-.289 1.371-1.804 2.887-1.804 2.887s-.289-2.093.216-3.103c.65-1.155 2.959-2.814 3.031-2.887z" fill="#929292"/><path d="M52.458 109.77c-.144.938-.144 1.732-.433 2.742-.144.578-1.226 1.732-1.948 2.021-.289.144-.505.144-.505.144s1.515-1.515 1.804-2.886c.289-1.372 1.371-2.959 1.443-3.103-.072 0-.288.577-.36 1.082z" fill="#E6E6E6"/><path d="M47.48 112.584c.071.145.793 1.949 1.731 2.959.938 1.083 1.371 3.175 1.371 3.175s-1.876-.938-2.381-1.948c-.65-1.227-.722-4.041-.722-4.186z" fill="#929292"/><path d="M48.2 113.523c.65.649 1.3 1.154 1.95 1.948.432.505.72 1.948.504 2.742 0 .289-.216.505-.216.505s-.361-2.092-1.371-3.175c-.938-1.01-1.66-2.814-1.66-2.959.144.073.505.65.794.939z" fill="#E6E6E6"/><path d="M52.458 112.657c-.072.144-.721 1.948-.65 3.319 0 1.443-1.081 3.247-1.081 3.247s-.794-1.948-.506-3.03c.361-1.299 2.165-3.464 2.237-3.536z" fill="#929292"/><path d="M52.386 113.811c.072.938.217 1.732.217 2.742 0 .65-.794 1.949-1.444 2.382-.216.216-.505.288-.505.288s1.083-1.804 1.083-3.247c0-1.371.65-3.175.65-3.319.071.072-.073.721 0 1.154z" fill="#E6E6E6"/><path d="M48.056 117.492c.073.144 1.01 1.876 2.021 2.742 1.083.938 1.66 2.958 1.66 2.958s-1.949-.721-2.598-1.659c-.65-1.227-1.01-3.969-1.083-4.041z" fill="#929292"/><path d="M48.922 118.285c.722.578 1.444.938 2.165 1.732.433.433.938 1.876.794 2.67 0 .289-.144.505-.144.505s-.578-2.02-1.66-2.958c-1.01-.938-1.948-2.598-2.02-2.742.072 0 .432.505.865.793z" fill="#E6E6E6"/><path d="M53.036 116.986c0 .145-.505 2.021-.289 3.392.217 1.443-.722 3.32-.722 3.32s-1.01-1.805-.793-2.959c.144-1.371 1.732-3.68 1.804-3.753z" fill="#929292"/><path d="M53.036 118.141c.216.938.433 1.66.505 2.742.072.65-.577 2.021-1.155 2.526a1.252 1.252 0 0 1-.433.289s.866-1.949.722-3.32c-.144-1.371.289-3.247.289-3.392.072.073 0 .65.072 1.155z" fill="#E6E6E6"/><path d="M49.355 122.182c.073.145 1.3 1.66 2.454 2.309 1.227.722 2.165 2.598 2.165 2.598s-2.02-.361-2.814-1.154c-.866-.938-1.732-3.608-1.805-3.753z" fill="#929292"/><path d="M50.366 122.904c.866.433 1.587.721 2.453 1.299.505.361 1.227 1.659 1.3 2.453.071.289 0 .505 0 .505s-.939-1.876-2.166-2.597c-1.154-.722-2.381-2.238-2.453-2.31-.072 0 .433.433.866.65z" fill="#E6E6E6"/><path d="M54.118 120.811c0 .144-.072 2.093.36 3.392.434 1.371-.071 3.391-.071 3.391s-1.3-1.587-1.371-2.742c-.072-1.371 1.082-3.969 1.082-4.041z" fill="#929292"/><path d="M54.407 121.966c.36.866.722 1.587 1.01 2.597.144.578-.216 2.093-.65 2.671-.144.288-.36.36-.36.36s.505-2.092.072-3.391-.36-3.248-.36-3.392c0 .072.071.722.288 1.155z" fill="#E6E6E6"/><path d="M51.376 126.584c.072.072 1.588 1.371 2.886 1.876 1.371.505 2.598 2.165 2.598 2.165s-2.092 0-3.03-.649c-1.083-.866-2.382-3.32-2.454-3.392z" fill="#929292"/><path d="M52.458 127.089c.866.289 1.66.433 2.67.794.578.216 1.516 1.443 1.732 2.165.145.289.072.505.072.505s-1.299-1.66-2.597-2.165c-1.3-.505-2.743-1.732-2.887-1.876 0 .072.505.433 1.01.577z" fill="#E6E6E6"/><path d="M55.778 124.347c0 .144.289 2.093.938 3.247.65 1.227.505 3.392.505 3.392s-1.587-1.371-1.804-2.454c-.289-1.371.36-4.113.36-4.185z" fill="#929292"/><path d="M56.283 125.429c.505.794 1.01 1.444 1.443 2.382.289.577.217 2.093-.144 2.742-.072.289-.289.433-.289.433s.145-2.093-.505-3.392c-.65-1.226-.866-3.175-.938-3.247 0 .072.144.649.433 1.082z" fill="#E6E6E6"/><path d="M54.695 130.914c.145.072 1.877.938 3.248 1.082 1.443.145 3.103 1.516 3.103 1.516s-2.02.505-3.103.072c-1.3-.505-3.248-2.598-3.248-2.67z" fill="#929292"/><path d="M55.85 131.13c.938.073 1.732 0 2.742.145.65.072 1.804 1.01 2.165 1.732.217.288.217.505.217.505s-1.66-1.299-3.103-1.516c-1.371-.144-3.103-1.01-3.248-1.082.145 0 .722.216 1.227.216z" fill="#E6E6E6"/><path d="M58.448 127.666c.072.145.794 1.949 1.66 2.959.938 1.083 1.299 3.175 1.299 3.175s-1.877-.938-2.382-1.948c-.577-1.227-.577-4.041-.577-4.186z" fill="#929292"/><path d="M59.17 128.605c.649.649 1.298 1.154 1.948 1.948.433.505.722 2.021.505 2.742 0 .289-.216.505-.216.505s-.361-2.092-1.3-3.175c-.937-1.01-1.66-2.814-1.66-2.959 0 .073.362.65.723.939z" fill="#E6E6E6"/><path d="M58.231 134.017c.145.072 1.877.866 3.248 1.01 1.443.072 3.103 1.371 3.103 1.371s-2.02.578-3.103.217c-1.227-.505-3.175-2.526-3.248-2.598z" fill="#929292"/><path d="M59.386 134.233c.938 0 1.732-.072 2.742.073.65.072 1.876.938 2.237 1.659.217.217.217.505.217.505s-1.732-1.299-3.103-1.371c-1.371-.072-3.103-.938-3.248-1.01.072 0 .722.144 1.155.144z" fill="#E6E6E6"/><path d="M61.912 130.697c.072.145.866 1.877 1.804 2.887 1.01 1.01 1.443 3.103 1.443 3.103s-1.876-.866-2.454-1.876c-.649-1.227-.793-4.042-.793-4.114z" fill="#929292"/><path d="M62.633 131.563c.722.65 1.3 1.083 2.021 1.877.433.432.794 1.948.577 2.742 0 .288-.144.505-.144.505s-.433-2.093-1.443-3.103c-.938-1.01-1.732-2.742-1.804-2.887.072.072.433.578.793.866z" fill="#E6E6E6"/><path d="M62.85 136.976c.144 0 2.02.36 3.392.072 1.37-.289 3.391.505 3.391.505s-1.732 1.082-2.886 1.01c-1.371-.144-3.825-1.515-3.897-1.587z" fill="#929292"/><path d="M64.004 136.831c.867-.216 1.66-.505 2.67-.721.578-.073 2.021.433 2.598.938.29.216.361.433.361.433s-1.948-.794-3.391-.505c-1.371.288-3.248-.073-3.392-.073.072.073.722.073 1.154-.072z" fill="#E6E6E6"/><path d="M68.262 138.852c.144 0 2.093 0 3.392-.505 1.37-.505 3.392-.072 3.392-.072s-1.588 1.371-2.67 1.515c-1.372.072-4.042-.866-4.114-.938z" fill="#929292"/><path d="M69.417 138.563c.866-.361 1.515-.794 2.525-1.154.578-.217 2.093.072 2.743.505.288.144.433.361.433.361s-2.093-.433-3.392.072-3.247.505-3.392.505c0 0 .578-.072 1.083-.289z" fill="#E6E6E6"/><path d="M65.448 132.79c.072.144 1.299 1.588 2.526 2.309 1.226.722 2.236 2.598 2.236 2.598s-2.02-.361-2.886-1.154c-.938-1.011-1.876-3.681-1.876-3.753z" fill="#929292"/><path d="M66.386 133.44c.866.433 1.588.649 2.454 1.226.505.361 1.226 1.66 1.298 2.454.073.289 0 .505 0 .505s-1.01-1.876-2.237-2.598c-1.226-.721-2.453-2.165-2.525-2.309a4.63 4.63 0 0 0 1.01.722z" fill="#E6E6E6"/><path d="M69.994 134.738c.072.073 1.371 1.227 2.526 1.588 1.154.433 2.309 1.876 2.309 1.876s-1.804 0-2.67-.577c-.938-.65-2.093-2.814-2.165-2.887z" fill="#929292"/><path d="M70.932 135.171c.794.217 1.443.361 2.31.722.504.217 1.37 1.227 1.515 1.876.072.289.072.433.072.433s-1.155-1.443-2.31-1.876c-1.154-.433-2.453-1.515-2.525-1.588.072.073.577.361.938.433z" fill="#E6E6E6"/><path d="M72.015 140.078c.072 0 .938-.505 1.443-1.01.505-.577 1.587-.794 1.587-.794s-.433 1.011-.938 1.299c-.577.361-2.02.505-2.092.505z" fill="#929292"/><path d="M72.52 139.718c.288-.361.505-.722.938-1.083.216-.216 1.01-.433 1.371-.36.144 0 .289.072.289.072s-1.083.288-1.588.794c-.505.505-1.371.938-1.443 1.01 0-.072.216-.289.433-.433z" fill="#E6E6E6"/><path d="M101.746 102.698c0 .144 0 2.093-.505 3.392-.505 1.371-.072 3.391-.072 3.391s1.371-1.587 1.443-2.67c.144-1.443-.866-4.041-.866-4.113z" fill="#929292"/><path d="M101.385 103.853c-.361.866-.794 1.515-1.155 2.525-.216.578.073 2.093.506 2.743.144.288.36.433.36.433s-.433-2.093.073-3.392c.505-1.299.505-3.247.505-3.392.072 0-.072.578-.289 1.083z" fill="#E6E6E6"/><path d="M97.2 104.574c.072.072 1.37 1.588 1.876 2.815.505 1.371 2.165 2.597 2.165 2.597s0-2.092-.65-3.03c-.866-1.011-3.32-2.382-3.391-2.382z" fill="#929292"/><path d="M97.633 105.657c.288.866.433 1.659.866 2.67.216.577 1.443 1.515 2.164 1.66.289.144.506.072.506.072s-1.66-1.299-2.165-2.598c-.505-1.299-1.804-2.742-1.877-2.815.073 0 .434.506.506 1.011z" fill="#E6E6E6"/><path d="M102.973 107.461c0 .144-.289 2.093-.938 3.247-.722 1.227-.578 3.392-.578 3.392s1.588-1.371 1.877-2.454c.216-1.371-.361-4.113-.361-4.185z" fill="#929292"/><path d="M102.468 108.543c-.506.794-1.011 1.371-1.516 2.309-.289.578-.216 2.093.144 2.743a.788.788 0 0 0 .289.433s-.144-2.093.577-3.392c.65-1.227.939-3.103.939-3.247 0 .144-.145.721-.433 1.154z" fill="#E6E6E6"/><path d="M98.138 108.615c.072.145 1.154 1.732 1.443 3.103.289 1.371 1.804 2.887 1.804 2.887s.289-2.093-.216-3.103c-.65-1.155-2.96-2.815-3.031-2.887z" fill="#929292"/><path d="M98.499 109.77c.144.938.144 1.732.433 2.742.144.577 1.226 1.732 1.948 2.021.289.144.505.144.505.144s-1.515-1.515-1.804-2.886c-.289-1.372-1.371-2.959-1.443-3.103.072 0 .288.577.36 1.082z" fill="#E6E6E6"/><path d="M103.478 112.584c-.072.145-.794 1.949-1.732 2.959-.938 1.082-1.371 3.175-1.371 3.175s1.876-.938 2.381-1.948c.65-1.227.722-4.041.722-4.186z" fill="#929292"/><path d="M102.756 113.522c-.649.65-1.299 1.155-1.948 1.949-.433.505-.722 1.948-.505 2.742 0 .289.216.505.216.505s.361-2.093 1.371-3.175c.938-1.01 1.66-2.814 1.66-2.959-.144.073-.505.65-.794.938z" fill="#E6E6E6"/><path d="M98.499 112.657c.072.144.721 1.948.649 3.319 0 1.443 1.082 3.247 1.082 3.247s.794-1.948.506-3.03c-.361-1.299-2.165-3.464-2.237-3.536z" fill="#929292"/><path d="M98.57 113.811c-.071.938-.216 1.732-.216 2.742 0 .65.794 1.949 1.443 2.382.217.216.506.288.506.288s-1.083-1.804-1.083-3.247c0-1.371-.65-3.175-.65-3.319-.071.072.073.721 0 1.154z" fill="#E6E6E6"/><path d="M102.828 117.491c-.072.145-1.01 1.877-2.02 2.743-1.083.938-1.66 2.958-1.66 2.958s1.948-.721 2.598-1.659c.722-1.227 1.082-3.969 1.082-4.042z" fill="#929292"/><path d="M102.035 118.285c-.722.578-1.444.938-2.165 1.732-.433.433-.939 1.876-.794 2.67 0 .289.144.505.144.505s.578-2.02 1.66-2.958c1.01-.938 1.948-2.598 2.02-2.743-.072 0-.505.506-.865.794z" fill="#E6E6E6"/><path d="M97.921 116.986c0 .145.505 2.021.289 3.392-.217 1.443.722 3.319.722 3.319s1.01-1.804.793-2.958c-.144-1.371-1.732-3.681-1.804-3.753z" fill="#929292"/><path d="M97.849 118.141c-.216.938-.433 1.66-.505 2.742-.072.65.577 2.021 1.155 2.526.216.216.433.288.433.288s-.867-1.948-.722-3.319c.144-1.371-.289-3.247-.289-3.392 0 .072.072.65-.072 1.155z" fill="#E6E6E6"/><path d="M101.602 122.182c-.073.145-1.299 1.66-2.454 2.309-1.227.722-2.165 2.598-2.165 2.598s2.02-.361 2.815-1.154c.866-.938 1.731-3.608 1.804-3.753z" fill="#929292"/><path d="M100.591 122.904c-.866.433-1.587.721-2.453 1.299-.505.361-1.227 1.659-1.3 2.453a.98.98 0 0 0 0 .505s.939-1.876 2.166-2.597c1.154-.722 2.381-2.238 2.453-2.31.072 0-.433.433-.866.65z" fill="#E6E6E6"/><path d="M96.839 120.811c0 .144.072 2.093-.36 3.392-.434 1.371.071 3.391.071 3.391s1.3-1.587 1.371-2.742c.072-1.371-1.082-3.969-1.082-4.041z" fill="#929292"/><path d="M96.55 121.966c-.36.866-.721 1.587-1.01 2.597-.145.578.216 2.093.65 2.67.144.289.36.361.36.361s-.505-2.092-.072-3.391.36-3.248.36-3.392c0 .072-.071.722-.288 1.155z" fill="#E6E6E6"/><path d="M99.581 126.584c-.072.072-1.588 1.371-2.886 1.876-1.372.505-2.598 2.165-2.598 2.165s2.092 0 3.03-.649c1.083-.866 2.382-3.32 2.454-3.392z" fill="#929292"/><path d="M98.499 127.089c-.866.289-1.66.433-2.67.794-.578.216-1.516 1.443-1.732 2.165-.145.289-.073.505-.073.505s1.3-1.66 2.598-2.165c1.3-.505 2.743-1.732 2.887-1.876 0 .072-.578.433-1.01.577z" fill="#E6E6E6"/><path d="M95.179 124.347c0 .144-.289 2.093-.938 3.247-.65 1.227-.505 3.392-.505 3.392s1.587-1.371 1.804-2.454c.288-1.371-.361-4.113-.361-4.185z" fill="#929292"/><path d="M94.674 125.429c-.505.794-1.01 1.444-1.443 2.382-.29.577-.217 2.093.144 2.742a.78.78 0 0 0 .289.433s-.145-2.093.505-3.392c.65-1.226.866-3.175.938-3.247 0 .072-.144.649-.433 1.082z" fill="#E6E6E6"/><path d="M96.261 130.914c-.144.072-1.876.938-3.247 1.082-1.443.145-3.103 1.516-3.103 1.516s2.02.505 3.103.072c1.3-.505 3.248-2.598 3.248-2.67z" fill="#929292"/><path d="M95.107 131.13c-.938.072-1.732 0-2.742.145-.65.072-1.804 1.01-2.165 1.732-.217.288-.217.505-.217.505s1.66-1.299 3.103-1.516c1.371-.144 3.103-1.01 3.248-1.082-.145 0-.722.216-1.227.216z" fill="#E6E6E6"/><path d="M92.509 127.666c-.072.145-.794 1.949-1.66 2.959-.938 1.083-1.299 3.175-1.299 3.175s1.877-.938 2.382-1.948c.577-1.227.577-4.041.577-4.186z" fill="#929292"/><path d="M91.787 128.605c-.65.649-1.299 1.154-1.948 1.948-.433.505-.722 2.021-.505 2.742 0 .289.216.505.216.505s.361-2.092 1.3-3.175c.937-1.01 1.659-2.814 1.659-2.959 0 .073-.36.65-.722.939z" fill="#E6E6E6"/><path d="M92.725 134.017c-.144.072-1.876.866-3.247 1.01-1.443.072-3.103 1.371-3.103 1.371s2.02.577 3.103.217c1.227-.505 3.175-2.526 3.248-2.598z" fill="#929292"/><path d="M91.57 134.233c-.937 0-1.731-.072-2.741.072-.65.073-1.876.939-2.237 1.66-.217.217-.217.505-.217.505s1.732-1.299 3.103-1.371c1.371-.072 3.103-.938 3.248-1.01-.073 0-.722.144-1.155.144z" fill="#E6E6E6"/><path d="M89.045 130.697c-.072.145-.866 1.877-1.804 2.887-1.01 1.01-1.443 3.103-1.443 3.103s1.876-.866 2.453-1.876c.65-1.227.794-4.042.794-4.114z" fill="#929292"/><path d="M88.323 131.563c-.721.65-1.298 1.083-2.02 1.877-.433.432-.794 1.948-.577 2.742a1 1 0 0 0 .144.505s.433-2.093 1.443-3.103c.938-1.01 1.732-2.742 1.804-2.887-.072.072-.433.578-.794.866z" fill="#E6E6E6"/><path d="M88.107 136.976c-.144 0-2.02.36-3.392.072-1.37-.289-3.391.505-3.391.505s1.732 1.082 2.886 1.01c1.371-.144 3.825-1.515 3.897-1.587z" fill="#929292"/><path d="M86.952 136.831c-.866-.216-1.66-.505-2.67-.721-.577-.073-2.092.433-2.597.938-.29.216-.361.433-.361.433s1.948-.794 3.391-.505c1.371.288 3.248-.073 3.392-.073-.072.073-.722.073-1.155-.072z" fill="#E6E6E6"/><path d="M85.51 132.79c-.073.144-1.3 1.588-2.527 2.309-1.226.722-2.237 2.598-2.237 2.598s2.02-.361 2.887-1.154c.938-1.011 1.876-3.681 1.876-3.753z" fill="#929292"/><path d="M84.571 133.44c-.866.433-1.588.649-2.453 1.226-.506.361-1.227 1.66-1.3 2.454a.981.981 0 0 0 0 .505s1.01-1.876 2.238-2.598c1.226-.721 2.453-2.165 2.525-2.309a4.627 4.627 0 0 1-1.01.722z" fill="#E6E6E6"/><path d="M83.416 138.852c-.144 0-2.092 0-3.391-.505-1.3-.505-3.392-.145-3.392-.145s1.516 1.372 2.67 1.516c1.371.144 4.041-.794 4.113-.866z" fill="#929292"/><path d="M82.334 138.491c-.866-.433-1.516-.794-2.526-1.155-.577-.216-2.093.073-2.742.506-.289.144-.433.36-.433.36s2.093-.433 3.392.145c1.299.505 3.247.505 3.391.505-.072 0-.65-.144-1.082-.361z" fill="#E6E6E6"/><path d="M80.89 134.738c-.072.073-1.37 1.227-2.525 1.588-1.155.433-2.31 1.876-2.31 1.876s1.805 0 2.67-.577c1.011-.65 2.166-2.814 2.166-2.887z" fill="#929292"/><path d="M79.953 135.171c-.794.217-1.444.361-2.31.722-.505.217-1.37 1.227-1.515 1.876-.072.289-.072.433-.072.433s1.154-1.443 2.309-1.876c1.155-.433 2.454-1.515 2.526-1.588 0 .073-.505.361-.938.433z" fill="#E6E6E6"/><path d="M78.942 140.079c-.072 0-.938-.506-1.443-1.011-.505-.577-1.587-.793-1.587-.793s.432 1.01.938 1.298c.577.361 2.02.506 2.092.506z" fill="#929292"/><path d="M78.437 139.718c-.288-.361-.505-.722-.938-1.083-.216-.216-1.01-.433-1.371-.36-.144 0-.289.072-.289.072s1.083.288 1.588.793c.505.506 1.371.939 1.443 1.011 0-.072-.216-.289-.433-.433z" fill="#E6E6E6"/><path d="M62.345 72.029c-14.577 2.958-25.69 11.69-31.968 22.226-5.196 8.66-5.918 15.659-3.68 23.958 10.535 41.783 25.545 19.845 45.606 40.195.145.144.145.433 0 .505l-1.515 1.443a.348.348 0 0 1-.505 0c-12.412-12.412-22.01-7.721-31.896-14.577-8.371-5.917-11.98-18.257-14.289-28.576-2.237-10.103.794-19.051 7.217-27.567.36-.505 1.587-1.948 1.804-2.164 7.865-8.516 17.03-14 29.226-15.443zM19.191 83.864c-.072.432-1.01 6.494-.072 10.68.938 4.402-1.371 10.608-1.371 10.608s-3.536-5.485-3.32-9.093c.361-4.258 4.619-11.979 4.763-12.195z" fill="#929292"/><path d="M19.696 87.544c.794 2.814 1.732 5.123 2.31 8.37.36 1.95-1.227 6.495-2.887 8.227-.577.794-1.299 1.083-1.299 1.083s2.31-6.278 1.371-10.608c-.938-4.258 0-10.247.072-10.68-.072.216 0 2.164.433 3.608z" fill="#E6E6E6"/><path d="M28.428 91.152c-.144.433-2.093 6.206-1.948 10.536.144 4.474-3.175 10.247-3.175 10.247s-2.526-5.99-1.66-9.526c1.01-4.257 6.639-11.04 6.783-11.257z" fill="#929292"/><path d="M28.284 94.832c.288 2.887.794 5.34.794 8.66 0 1.948-2.382 6.134-4.33 7.577-.722.722-1.444.794-1.444.794s3.392-5.773 3.176-10.247c-.145-4.33 1.804-10.103 1.948-10.464 0 .289-.289 2.165-.144 3.68z" fill="#E6E6E6"/><path d="M10.027 95.41c.144.36 2.453 4.979 5.123 7.504 2.814 2.598 4.185 8.083 4.185 8.083s-5.123-2.165-6.71-4.763c-1.877-3.103-2.598-10.608-2.598-10.825z" fill="#929292"/><path d="M12.191 97.719c1.949 1.587 3.68 2.742 5.701 4.762 1.155 1.155 2.237 5.124 1.949 7.145 0 .866-.433 1.371-.433 1.371s-1.444-5.485-4.186-8.083c-2.67-2.525-4.98-7.216-5.123-7.505.072.145 1.082 1.516 2.092 2.31z" fill="#E6E6E6"/><path d="M8.439 108.615c0 .073 0 .073 0 0 .216.289 3.752 4.547 7.144 6.423 3.536 1.948 6.35 7.216 6.35 7.216s-5.773-.866-8.082-3.175c-2.742-2.67-5.34-10.175-5.412-10.464z" fill="#929292"/><path d="M11.181 110.492c2.381 1.154 4.474 1.876 7 3.464 1.515.938 3.608 4.69 3.752 6.855.217.866-.072 1.515-.072 1.515s-2.814-5.267-6.35-7.216c-3.392-1.948-6.856-6.134-7.144-6.422.216.144 1.587 1.226 2.814 1.804z" fill="#E6E6E6"/><path d="M20.851 103.42c0 .072 0 .072 0 0 0 .433.505 6.783 2.454 10.824 1.948 4.186 1.154 11.041 1.154 11.041s-4.835-4.69-5.484-8.371c-.794-4.402 1.732-13.206 1.876-13.494z" fill="#929292"/><path d="M22.15 107.028c1.443 2.67 2.959 4.763 4.258 7.938.793 1.876.216 6.855-1.01 8.948-.362.938-1.083 1.371-1.083 1.371s.866-6.855-1.155-11.041c-1.876-4.041-2.381-10.391-2.381-10.824.072.288.65 2.237 1.37 3.608z" fill="#E6E6E6"/><path d="M8.944 129.326c.072 0 .072 0 0 0 .433.145 6.422 2.237 10.897 2.093 4.618-.144 10.608 3.32 10.608 3.32s-6.279 2.597-9.887 1.659c-4.33-1.01-11.402-6.855-11.618-7.072z" fill="#929292"/><path d="M12.84 129.543c3.032-.289 5.485-.794 8.949-.794 2.02 0 6.35 2.454 7.866 4.474.721.722.866 1.516.866 1.516s-5.918-3.464-10.608-3.32c-4.474.144-10.464-1.948-10.897-2.093.217.072 2.237.361 3.825.217z" fill="#E6E6E6"/><path d="M21.789 122.759c.216.361 3.464 5.846 7 8.588 3.68 2.886 5.99 9.381 5.99 9.381s-6.423-2.021-8.66-5.051c-2.67-3.609-4.33-12.629-4.33-12.918z" fill="#929292"/><path d="M24.603 125.357c2.526 1.732 4.763 2.887 7.361 5.196 1.516 1.299 3.247 5.99 3.103 8.515.072 1.011-.36 1.732-.36 1.732s-2.31-6.495-5.99-9.381c-3.536-2.742-6.784-8.227-7-8.587.216.144 1.588 1.659 2.886 2.525z" fill="#E6E6E6"/><path d="M35.86 121.388c.073.433.578 6.784 2.599 10.825 2.02 4.185 1.299 11.041 1.299 11.041s-4.907-4.619-5.557-8.299c-.866-4.474 1.588-13.278 1.66-13.567z" fill="#929292"/><path d="M37.232 124.996c1.515 2.598 3.03 4.691 4.402 7.866.794 1.877.36 6.856-.938 9.021-.361.938-1.083 1.371-1.083 1.371s.794-6.856-1.299-11.041c-1.948-4.041-2.525-10.32-2.525-10.753.144.217.65 2.165 1.443 3.536z" fill="#E6E6E6"/><path d="M45.459 127.306c.072.433.577 6.783 2.597 10.824 2.021 4.186 1.3 11.041 1.3 11.041s-4.908-4.618-5.557-8.299c-.866-4.474 1.587-13.278 1.66-13.566z" fill="#929292"/><path d="M46.83 130.842c1.515 2.598 3.03 4.69 4.402 7.866.793 1.876.36 6.855-.938 9.02a2.911 2.911 0 0 1-1.083 1.371s.794-6.855-1.299-11.041c-1.948-4.041-2.526-10.319-2.526-10.752.145.216.65 2.165 1.444 3.536z" fill="#E6E6E6"/><path d="M16.666 143.759c.505.072 7 1.155 11.618.289 4.763-.938 11.546 1.659 11.546 1.659s-5.99 3.753-9.886 3.464c-4.691-.433-12.99-5.268-13.278-5.412z" fill="#929292"/><path d="M20.707 143.326c3.03-.866 5.556-1.804 9.164-2.381 2.093-.361 7 1.443 8.876 3.319.866.65 1.155 1.443 1.155 1.443s-6.783-2.597-11.546-1.659c-4.619.938-11.113-.145-11.618-.289.216 0 2.381 0 3.969-.433z" fill="#E6E6E6"/><path d="M35.86 158.913c.362-.144 5.63-2.093 8.66-4.69 3.103-2.743 9.165-3.681 9.165-3.681s-2.814 5.268-5.845 6.711c-3.608 1.66-11.763 1.66-11.98 1.66z" fill="#929292"/><path d="M38.603 156.82c1.876-1.876 3.32-3.68 5.7-5.628 1.372-1.155 5.774-1.876 7.867-1.299.938.072 1.443.577 1.443.577s-6.062.938-9.165 3.68c-2.958 2.598-8.226 4.547-8.587 4.691.216-.072 1.732-1.01 2.742-2.021z" fill="#E6E6E6"/><path d="M68.19 63.225c-.36.144-5.34 2.237-8.154 4.835-2.887 2.742-8.66 3.824-8.66 3.824s2.526-5.195 5.34-6.639c3.464-1.732 11.258-2.02 11.474-2.02z" fill="#929292"/><path d="M65.664 65.317c-1.732 1.877-3.03 3.68-5.268 5.557-1.299 1.155-5.484 2.02-7.505 1.588-.866-.073-1.37-.505-1.37-.505s5.772-1.155 8.659-3.825c2.814-2.598 7.721-4.69 8.082-4.835-.216.072-1.66 1.01-2.598 2.02z" fill="#E6E6E6"/><path d="M56.139 60.41c-.217.361-3.103 4.907-3.825 8.66-.794 3.897-4.835 8.154-4.835 8.154s-.938-5.7.505-8.515c1.732-3.464 7.938-8.154 8.155-8.299z" fill="#929292"/><path d="M55.2 63.513c-.36 2.526-.36 4.763-1.082 7.578-.433 1.66-3.32 4.835-5.268 5.628-.721.433-1.443.433-1.443.433s4.041-4.257 4.835-8.154c.722-3.753 3.608-8.299 3.825-8.66 0 .289-.65 1.877-.866 3.175z" fill="#E6E6E6"/><path d="M46.469 64.885c-.072.288-1.299 4.474-1.01 7.577.288 3.175-1.877 7.432-1.877 7.432s-2.02-4.185-1.515-6.71c.505-3.104 4.258-8.155 4.402-8.3z" fill="#929292"/><path d="M46.469 67.555c.36 2.02.794 3.752.866 6.133.072 1.371-1.443 4.474-2.815 5.557-.505.505-1.01.65-1.01.65s2.165-4.186 1.877-7.433c-.29-3.103.938-7.217 1.01-7.505 0 .144-.145 1.515.072 2.598z" fill="#E6E6E6"/><path d="M66.097 74.987c-.36.073-4.835 1.3-7.577 3.248-2.814 2.02-7.938 2.309-7.938 2.309s2.742-4.185 5.34-5.124c3.248-1.082 9.959-.433 10.175-.433z" fill="#929292"/><path d="M63.716 76.503c-1.732 1.443-3.031 2.814-5.196 4.185-1.227.794-4.98 1.083-6.711.505a2.43 2.43 0 0 1-1.155-.577s5.124-.288 7.938-2.31c2.67-1.947 7.217-3.174 7.578-3.246-.217 0-1.588.649-2.454 1.443z" fill="#E6E6E6"/><path d="M52.314 72.245c-.072 0-.072 0 0 0-.216.289-3.32 4.402-4.33 7.866-1.082 3.608-5.268 7.36-5.268 7.36s-.433-5.484 1.155-8.082c1.948-3.103 8.227-7.072 8.443-7.144z" fill="#929292"/><path d="M51.16 75.132c-.506 2.381-.722 4.474-1.66 7.144-.505 1.588-3.536 4.33-5.413 4.907-.721.36-1.37.289-1.37.289s4.185-3.753 5.267-7.361c1.01-3.536 4.114-7.577 4.33-7.866-.144.144-.866 1.66-1.154 2.887z" fill="#E6E6E6"/><path d="M54.984 84.224c-.36.145-4.98 2.31-7.577 4.907-2.67 2.67-8.082 3.97-8.082 3.97s2.237-5.052 4.835-6.567c3.175-1.805 10.608-2.31 10.824-2.31z" fill="#929292"/><path d="M52.675 86.245c-1.588 1.876-2.742 3.608-4.835 5.484-1.227 1.155-5.124 2.093-7.144 1.732-.866 0-1.371-.433-1.371-.433s5.484-1.299 8.082-3.969c2.526-2.598 7.216-4.763 7.577-4.907-.144.144-1.515 1.082-2.31 2.093z" fill="#E6E6E6"/><path d="M34.057 72.534c0 .433-.072 6.855 1.443 11.185 1.588 4.474.144 11.258.144 11.258s-4.474-5.196-4.762-9.02c-.289-4.475 3.103-13.134 3.175-13.423z" fill="#929292"/><path d="M35.14 76.286c1.226 2.815 2.525 5.052 3.607 8.443.65 1.949-.36 6.928-1.876 9.02-.505.939-1.227 1.3-1.227 1.3s1.516-6.856-.144-11.258c-1.587-4.257-1.443-10.68-1.443-11.185.072.217.433 2.237 1.082 3.68z" fill="#E6E6E6"/><path d="M43.366 80.833c-.217.433-3.248 6.061-3.825 10.608-.577 4.69-5.051 10.102-5.051 10.102s-1.588-6.71-.072-10.175c1.732-4.257 8.731-10.319 8.948-10.535z" fill="#929292"/><path d="M42.572 84.657c-.144 3.103-.072 5.701-.65 9.165-.36 2.02-3.535 5.99-5.772 7.144-.866.577-1.66.577-1.66.577s4.474-5.412 5.051-10.102c.578-4.547 3.608-10.175 3.825-10.608-.072.288-.722 2.237-.794 3.824z" fill="#E6E6E6"/><path d="M48.273 95.049c-.289.288-4.546 3.896-6.495 7.36-1.948 3.609-7.288 6.567-7.288 6.567s.866-5.917 3.175-8.299c2.742-2.814 10.32-5.556 10.608-5.628z" fill="#929292"/><path d="M46.397 97.863c-1.155 2.454-1.877 4.546-3.392 7.216-.938 1.516-4.763 3.753-6.928 3.969-.865.217-1.515-.072-1.515-.072s5.34-2.958 7.288-6.567c1.877-3.464 6.134-7.144 6.495-7.36-.216.144-1.37 1.515-1.948 2.814z" fill="#E6E6E6"/><path d="M29.366 93.1c.072.361 1.227 4.98 3.175 7.722 2.02 2.886 2.237 8.082 2.237 8.082s-4.185-2.886-5.123-5.557c-1.083-3.175-.361-10.03-.289-10.247z" fill="#929292"/><path d="M30.81 95.554c1.443 1.804 2.814 3.175 4.185 5.34.794 1.299 1.082 5.051.36 6.783-.144.794-.649 1.155-.649 1.155s-.216-5.196-2.237-8.082c-1.948-2.743-3.103-7.361-3.175-7.722.144.217.794 1.66 1.515 2.526z" fill="#E6E6E6"/><path d="M43.294 107.172c-.289.217-3.825 3.392-5.34 6.423-1.588 3.103-6.062 5.773-6.062 5.773s.577-5.052 2.526-7.144c2.237-2.454 8.66-4.98 8.876-5.052z" fill="#929292"/><path d="M41.778 109.626c-.866 2.093-1.443 3.969-2.742 6.206-.722 1.299-3.969 3.319-5.845 3.536-.722.216-1.3 0-1.3 0s4.475-2.67 6.063-5.773c1.515-3.031 5.123-6.206 5.34-6.423-.145.217-1.083 1.371-1.516 2.454z" fill="#E6E6E6"/><path d="M32.397 105.801c-.072.433-1.515 6.856-.794 11.474.722 4.763-2.165 11.33-2.165 11.33s-3.391-6.134-2.886-9.959c.505-4.618 5.629-12.556 5.845-12.845z" fill="#929292"/><path d="M32.614 109.77c.649 3.103 1.515 5.557 1.876 9.165.216 2.093-1.804 6.855-3.68 8.587-.65.866-1.444 1.083-1.444 1.083s2.887-6.567 2.165-11.33c-.65-4.618.722-11.041.794-11.474.072.289-.072 2.382.289 3.969z" fill="#E6E6E6"/><path d="M69.508 123.212c-.534 0-.957-.124-1.27-.371a1.53 1.53 0 0 1-.547-.957 7.01 7.01 0 0 1-.097-1.153c0-.677.097-1.217.293-1.621.208-.403.599-.892 1.172-1.464l2.656-2.559c2.122-2.044 3.659-3.665 4.61-4.863.963-1.211 1.523-2.116 1.679-2.715.17-.599.254-1.127.254-1.582 0-.69-.156-1.244-.469-1.66-.3-.417-.67-.71-1.113-.879a3.386 3.386 0 0 0-1.25-.254c-.495 0-.97.097-1.426.293-.443.182-.8.39-1.074.625-.26.221-.469.397-.625.527-.625.534-1.172.801-1.64.801-.313 0-.613-.098-.9-.293a7.8 7.8 0 0 1-.859-.684c-.3-.273-.566-.56-.8-.859-.235-.313-.352-.612-.352-.898 0-.443.117-.821.352-1.133.247-.313.553-.638.917-.977.482-.456 1.088-.885 1.817-1.289.73-.404 1.53-.71 2.402-.918a11.075 11.075 0 0 1 2.578-.312c1.72 0 3.23.351 4.532 1.054 1.315.703 2.246 1.647 2.793 2.832.56 1.172.84 2.409.84 3.711 0 1.524-.398 3.015-1.192 4.473-.794 1.445-1.68 2.689-2.656 3.73-.977 1.042-2.468 2.52-4.473 4.434h7.207c.339 0 .593.02.762.059.182.026.325.071.43.136.169.104.28.241.332.41.052.157.078.398.078.723 0 .365-.052.859-.156 1.484-.092.625-.228 1.114-.41 1.465-.157.287-.372.476-.645.567-.274.078-.632.117-1.074.117H69.508z" fill="#fff"/></svg>