<svg width="116" height="168" fill="none" xmlns="http://www.w3.org/2000/svg"><path d="M79.687 63.658c17.752 9.02 29.876 27.494 29.876 48.782 0 30.236-24.536 54.772-54.772 54.772-30.236 0-54.772-24.536-54.772-54.772 0-20.783 11.546-38.896 28.649-48.133a54.84 54.84 0 0 1 26.123-6.639 54.635 54.635 0 0 1 24.896 5.99z" fill="#FFAD67"/><path d="M54.79 164.903c-13.999 0-27.205-5.485-37.09-15.371-9.887-9.886-15.372-23.092-15.372-37.092 0-19.267 10.536-36.947 27.495-46.184 7.649-4.114 16.308-6.35 25.04-6.35 8.371 0 16.453 1.948 23.814 5.7a52.467 52.467 0 0 1 20.71 18.98c5.197 8.298 7.939 17.896 7.939 27.782 0 14-5.485 27.205-15.371 37.092-9.959 10.03-23.164 15.443-37.164 15.443z" fill="#F69C62"/><path d="M54.79 158.552c-12.339 0-23.885-4.762-32.617-13.494C13.441 136.326 8.68 124.78 8.68 112.44c0-16.886 9.237-32.473 24.102-40.556a46.56 46.56 0 0 1 22.01-5.556c7.36 0 14.433 1.66 20.927 5.051 7.433 3.825 13.711 9.598 18.185 16.67a46.094 46.094 0 0 1 7 24.391c0 12.34-4.763 23.886-13.494 32.618-8.732 8.659-20.278 13.494-32.618 13.494z" stroke="#BC7546" stroke-width="1.9582" stroke-miterlimit="10"/><path d="M54.79 143.687c-8.37 0-16.164-3.248-22.081-9.165-5.917-5.917-9.165-13.783-9.165-22.082a31.272 31.272 0 0 1 16.381-27.494 31.422 31.422 0 0 1 14.938-3.753c4.98 0 9.814 1.155 14.216 3.392a31.598 31.598 0 0 1 12.34 11.33c3.103 4.979 4.763 10.68 4.763 16.525 0 8.371-3.247 16.165-9.165 22.082-5.99 5.917-13.855 9.165-22.226 9.165z" stroke="#F69C62" stroke-width="1.3987" stroke-miterlimit="10"/><path d="M54.791 150.47c-10.175 0-19.7-3.969-26.917-11.185-7.216-7.217-11.113-16.742-11.113-26.917 0-14 7.65-26.773 19.917-33.484a37.973 37.973 0 0 1 18.113-4.618c6.062 0 11.907 1.37 17.32 4.113a38.854 38.854 0 0 1 15.01 13.783c3.752 6.062 5.772 12.99 5.772 20.134 0 10.175-3.969 19.7-11.185 26.917-7.216 7.288-16.742 11.257-26.917 11.257z" stroke="#BC7546" stroke-width="1.9582" stroke-miterlimit="10"/><path d="M77.017 53.771a27.124 27.124 0 0 1 2.31 9.815c-7.433-3.825-15.949-5.99-24.897-5.99-9.453 0-18.33 2.381-26.123 6.639.072-3.608.794-7.216 2.31-10.464l.72-1.515c.795-1.732 2.382-2.959 4.259-3.175l2.02-.289a116.032 116.032 0 0 1 32.401 0l2.021.289c1.876.288 3.464 1.443 4.258 3.175l.721 1.515zm-5.484 1.516v-2.02a1.11 1.11 0 0 0-1.083-1.083H37.183a1.11 1.11 0 0 0-1.082 1.082v2.02a1.11 1.11 0 0 0 1.082 1.083H70.45a1.11 1.11 0 0 0 1.083-1.082z" fill="#F69C62"/><path d="M88.563.01L69.584 52.978H59.048L77.956.01h10.608z" fill="#092A5E"/><path d="M77.955.01L59.05 52.978H48.585L67.564.01h10.391z" fill="#092A5E"/><path d="M67.564.01l-18.98 52.968H37.978L56.956.01h10.608z" fill="#092A5E"/><path d="M103.48 124.52c6.683-15.911-.797-34.227-16.708-40.911-15.91-6.684-34.228.797-40.911 16.708-6.684 15.911.796 34.227 16.707 40.911 15.911 6.683 34.228-.797 40.912-16.708z" fill="#F9C8A9"/><path d="M18.998.01l18.979 52.968h10.536L29.606.01H18.998z" fill="#70CBF4"/><path d="M29.606.01l18.907 52.968h10.391L39.997.01H29.607z" fill="#70CBF4"/><path d="M39.998.01l18.906 52.968h10.68L50.607.01H39.998z" fill="#70CBF4"/><path d="M95.315 133.102c11.414-11.414 11.414-29.919 0-41.332-11.413-11.413-29.918-11.413-41.331 0-11.414 11.413-11.414 29.918 0 41.332 11.413 11.413 29.918 11.413 41.331 0z" fill="#FFAD67"/><path d="M90.365 128.152c8.68-8.68 8.68-22.753 0-31.432-8.68-8.68-22.752-8.68-31.432 0-8.68 8.679-8.68 22.752 0 31.432s22.753 8.68 31.432 0zM48.368 102.698c0 .144 0 2.093.506 3.392.505 1.371.072 3.391.072 3.391s-1.371-1.587-1.444-2.67c-.144-1.443.866-4.041.866-4.113z" fill="#BC7546"/><path d="M48.73 103.853c.36.866.793 1.515 1.154 2.525.216.578-.072 2.093-.505 2.743-.145.288-.361.433-.361.433s.433-2.093-.072-3.392-.505-3.247-.505-3.392c-.073 0 .072.578.288 1.083z" fill="#F9C8A9"/><path d="M52.915 104.574c-.072.072-1.371 1.588-1.877 2.815-.505 1.371-2.164 2.598-2.164 2.598s0-2.093.65-3.031c.865-1.011 3.319-2.382 3.39-2.382z" fill="#BC7546"/><path d="M52.482 105.657c-.289.866-.433 1.659-.866 2.67-.217.577-1.444 1.515-2.165 1.659-.289.145-.505.073-.505.073s1.66-1.299 2.165-2.598c.505-1.299 1.804-2.742 1.876-2.815-.072 0-.433.506-.505 1.011z" fill="#F9C8A9"/><path d="M47.142 107.461c0 .144.288 2.093.938 3.247.721 1.227.577 3.392.577 3.392s-1.587-1.371-1.876-2.454c-.217-1.371.36-4.113.36-4.185z" fill="#BC7546"/><path d="M47.647 108.543c.505.794 1.01 1.371 1.515 2.309.289.578.217 2.093-.144 2.743-.072.288-.289.433-.289.433s.145-2.093-.577-3.392c-.65-1.227-.938-3.103-.938-3.247 0 .144.144.721.433 1.154z" fill="#F9C8A9"/><path d="M51.977 108.615c-.072.145-1.155 1.732-1.444 3.103-.288 1.372-1.804 2.887-1.804 2.887s-.288-2.093.217-3.103c.65-1.155 2.959-2.814 3.03-2.887z" fill="#BC7546"/><path d="M51.616 109.77c-.145.938-.145 1.732-.433 2.742-.145.577-1.227 1.732-1.949 2.021-.288.144-.505.144-.505.144s1.516-1.515 1.804-2.886c.289-1.372 1.371-2.959 1.444-3.103-.072 0-.289.577-.361 1.082z" fill="#F9C8A9"/><path d="M46.636 112.584c.073.145.794 1.949 1.732 2.959.938 1.082 1.371 3.175 1.371 3.175s-1.876-.938-2.38-1.948c-.65-1.227-.723-4.041-.723-4.186z" fill="#BC7546"/><path d="M47.358 113.522c.65.65 1.3 1.155 1.949 1.949.433.505.721 1.948.505 2.742 0 .289-.217.505-.217.505s-.36-2.093-1.37-3.175c-.939-1.01-1.66-2.814-1.66-2.959.144.072.505.65.793.938z" fill="#F9C8A9"/><path d="M51.616 112.656c-.072.145-.722 1.949-.65 3.32 0 1.443-1.082 3.247-1.082 3.247s-.794-1.948-.505-3.031c.36-1.298 2.165-3.463 2.237-3.536z" fill="#BC7546"/><path d="M51.544 113.811c.072.938.216 1.732.216 2.742 0 .65-.794 1.949-1.443 2.382-.217.216-.505.288-.505.288s1.082-1.804 1.082-3.247c0-1.371.65-3.175.65-3.319.072.072-.072.721 0 1.154z" fill="#F9C8A9"/><path d="M47.286 117.491c.072.145 1.01 1.877 2.02 2.743 1.083.938 1.66 2.958 1.66 2.958s-1.948-.721-2.598-1.659c-.721-1.227-1.082-3.969-1.082-4.042z" fill="#BC7546"/><path d="M48.08 118.285c.721.578 1.443.938 2.165 1.732.433.433.938 1.876.794 2.67 0 .289-.145.505-.145.505s-.577-2.02-1.66-2.958c-1.01-.938-1.948-2.598-2.02-2.743.072 0 .505.506.866.794z" fill="#F9C8A9"/><path d="M52.193 116.986c0 .145-.505 2.021-.288 3.392.216 1.443-.722 3.32-.722 3.32s-1.01-1.805-.794-2.959c.144-1.371 1.732-3.681 1.804-3.753z" fill="#BC7546"/><path d="M52.193 118.141c.217.938.433 1.66.505 2.742.072.65-.577 2.021-1.154 2.526a1.252 1.252 0 0 1-.433.289s.866-1.949.721-3.32c-.144-1.371.289-3.247.289-3.392.072.072 0 .65.072 1.155z" fill="#F9C8A9"/><path d="M48.513 122.182c.072.144 1.299 1.66 2.453 2.309 1.227.722 2.165 2.598 2.165 2.598s-2.02-.361-2.814-1.154c-.866-.939-1.732-3.609-1.804-3.753z" fill="#BC7546"/><path d="M49.523 122.904c.866.433 1.588.721 2.454 1.299.505.36 1.226 1.659 1.299 2.453.072.289 0 .505 0 .505s-.939-1.876-2.165-2.598c-1.155-.721-2.382-2.237-2.454-2.309-.072 0 .433.433.866.65z" fill="#F9C8A9"/><path d="M53.276 120.811c0 .144-.073 2.093.36 3.392.433 1.371-.072 3.391-.072 3.391s-1.299-1.587-1.37-2.742c-.073-1.371 1.081-3.969 1.081-4.041z" fill="#BC7546"/><path d="M53.564 121.966c.361.866.722 1.587 1.01 2.597.145.578-.216 2.093-.649 2.671-.144.288-.36.36-.36.36s.504-2.092.071-3.391-.36-3.248-.36-3.392c0 .072.072.722.288 1.155z" fill="#F9C8A9"/><path d="M50.533 126.584c.072.072 1.588 1.371 2.887 1.876 1.371.505 2.598 2.165 2.598 2.165s-2.093 0-3.031-.649c-1.083-.866-2.382-3.32-2.454-3.392z" fill="#BC7546"/><path d="M51.616 127.089c.866.289 1.66.433 2.67.794.577.216 1.515 1.443 1.732 2.165.144.288.072.505.072.505s-1.299-1.66-2.598-2.165c-1.299-.505-2.742-1.732-2.886-1.876 0 .072.577.433 1.01.577z" fill="#F9C8A9"/><path d="M54.935 124.347c0 .144.289 2.093.938 3.247.65 1.227.506 3.392.506 3.392s-1.588-1.371-1.804-2.454c-.29-1.371.36-4.113.36-4.185z" fill="#BC7546"/><path d="M55.44 125.429c.506.794 1.01 1.444 1.444 2.382.288.577.216 2.093-.145 2.742-.072.289-.288.433-.288.433s.144-2.093-.505-3.392c-.65-1.226-.866-3.175-.938-3.247 0 .072.144.649.432 1.082z" fill="#F9C8A9"/><path d="M53.853 130.914c.144.072 1.876.938 3.247 1.082 1.443.145 3.103 1.516 3.103 1.516s-2.02.505-3.103.072c-1.299-.505-3.247-2.598-3.247-2.67z" fill="#BC7546"/><path d="M55.008 131.13c.938.072 1.731 0 2.742.145.65.072 1.804 1.01 2.165 1.732.216.288.216.505.216.505s-1.66-1.299-3.103-1.516c-1.371-.144-3.103-1.01-3.247-1.082.144 0 .721.216 1.227.216z" fill="#F9C8A9"/><path d="M57.605 127.666c.073.145.794 1.949 1.66 2.959.938 1.083 1.299 3.175 1.299 3.175s-1.876-.938-2.381-1.948c-.578-1.227-.578-4.041-.578-4.186z" fill="#BC7546"/><path d="M58.327 128.605c.65.649 1.299 1.154 1.948 1.948.433.505.722 2.021.506 2.742 0 .289-.217.505-.217.505s-.36-2.092-1.299-3.175c-.938-1.01-1.66-2.814-1.66-2.959 0 .073.361.65.722.939z" fill="#F9C8A9"/><path d="M57.389 134.017c.144.072 1.876.866 3.247 1.01 1.443.072 3.103 1.371 3.103 1.371s-2.02.577-3.103.217c-1.227-.506-3.175-2.526-3.247-2.598z" fill="#BC7546"/><path d="M58.543 134.233c.938 0 1.732-.072 2.743.072.649.073 1.876.939 2.237 1.66.216.217.216.505.216.505s-1.732-1.299-3.103-1.371c-1.371-.072-3.103-.938-3.247-1.01.072 0 .721.144 1.154.144z" fill="#F9C8A9"/><path d="M61.07 130.697c.071.145.865 1.877 1.803 2.887 1.01 1.01 1.444 3.103 1.444 3.103s-1.877-.866-2.454-1.876c-.65-1.227-.794-4.042-.794-4.114z" fill="#BC7546"/><path d="M61.79 131.563c.722.65 1.3 1.083 2.021 1.877.433.433.794 1.948.578 2.742 0 .288-.145.505-.145.505s-.433-2.093-1.443-3.103c-.938-1.01-1.732-2.742-1.804-2.887.072.072.433.578.794.866z" fill="#F9C8A9"/><path d="M62.007 136.976c.145 0 2.02.36 3.392.072 1.371-.289 3.392.505 3.392.505s-1.732 1.082-2.887 1.01c-1.371-.144-3.824-1.515-3.897-1.587z" fill="#BC7546"/><path d="M63.162 136.831c.866-.216 1.66-.505 2.67-.721.577-.073 2.02.433 2.598.938.288.216.36.433.36.433s-1.948-.794-3.391-.505c-1.371.288-3.247-.073-3.392-.073.073.072.722.073 1.155-.072z" fill="#F9C8A9"/><path d="M67.42 138.852c.144 0 2.092 0 3.391-.505 1.371-.505 3.392-.072 3.392-.072s-1.588 1.371-2.67 1.515c-1.371.072-4.041-.866-4.114-.938z" fill="#BC7546"/><path d="M68.574 138.563c.866-.361 1.516-.794 2.526-1.154.577-.217 2.093.072 2.742.505.289.144.433.36.433.36s-2.093-.433-3.392.073c-1.299.505-3.247.505-3.391.505 0 0 .65-.072 1.082-.289z" fill="#F9C8A9"/><path d="M64.605 132.79c.072.144 1.3 1.588 2.526 2.309 1.227.722 2.237 2.598 2.237 2.598s-2.02-.361-2.886-1.154c-.939-1.011-1.877-3.681-1.877-3.753z" fill="#BC7546"/><path d="M65.543 133.439c.866.433 1.588.65 2.454 1.227.505.361 1.227 1.66 1.299 2.454.072.288 0 .505 0 .505s-1.01-1.876-2.237-2.598-2.454-2.165-2.526-2.309c.144.144.577.505 1.01.721z" fill="#F9C8A9"/><path d="M69.224 134.738c.072.073 1.37 1.227 2.525 1.588 1.155.433 2.31 1.876 2.31 1.876s-1.805 0-2.67-.577c-1.01-.649-2.165-2.814-2.165-2.887z" fill="#BC7546"/><path d="M70.162 135.171c.793.217 1.443.361 2.309.722.505.217 1.371 1.227 1.515 1.876.073.289.073.433.073.433s-1.155-1.443-2.31-1.876c-1.154-.433-2.453-1.515-2.525-1.588 0 .073.505.361.938.433z" fill="#F9C8A9"/><path d="M71.172 140.079c.072 0 .938-.506 1.443-1.011.505-.577 1.588-.794 1.588-.794s-.433 1.011-.938 1.299c-.578.361-2.02.506-2.093.506z" fill="#BC7546"/><path d="M71.677 139.718c.289-.361.505-.722.938-1.083.217-.216 1.01-.433 1.371-.361.145 0 .289.073.289.073s-1.083.288-1.588.793c-.505.506-1.37.939-1.443 1.011 0-.072.217-.289.433-.433z" fill="#F9C8A9"/><path d="M100.903 102.698c0 .144 0 2.093-.505 3.392-.505 1.371-.072 3.391-.072 3.391s1.371-1.587 1.443-2.67c.145-1.443-.866-4.041-.866-4.113z" fill="#BC7546"/><path d="M100.543 103.853c-.361.866-.794 1.515-1.155 2.525-.217.578.072 2.093.505 2.743.144.288.361.433.361.433s-.433-2.093.072-3.392.505-3.247.505-3.392c.072 0-.072.578-.288 1.083z" fill="#F9C8A9"/><path d="M96.357 104.574c.072.072 1.371 1.588 1.876 2.815.505 1.371 2.165 2.598 2.165 2.598s0-2.093-.65-3.031c-.865-1.011-3.319-2.382-3.391-2.382z" fill="#BC7546"/><path d="M96.862 105.657c.289.866.433 1.659.866 2.67.217.577 1.443 1.515 2.165 1.659.289.145.505.073.505.073s-1.66-1.299-2.165-2.598c-.505-1.299-1.804-2.742-1.876-2.815 0 0 .36.506.505 1.011z" fill="#F9C8A9"/><path d="M102.13 107.461c0 .144-.288 2.093-.938 3.247-.722 1.227-.577 3.392-.577 3.392s1.587-1.371 1.876-2.454c.217-1.371-.361-4.113-.361-4.185z" fill="#BC7546"/><path d="M101.625 108.543c-.505.794-1.01 1.371-1.515 2.309-.29.578-.217 2.093.144 2.743a.783.783 0 0 0 .289.433s-.145-2.093.577-3.392c.649-1.227.938-3.103.938-3.247 0 .144-.144.721-.433 1.154z" fill="#F9C8A9"/><path d="M97.295 108.615c.072.145 1.155 1.732 1.444 3.103.288 1.372 1.804 2.887 1.804 2.887s.288-2.093-.217-3.103c-.65-1.155-2.959-2.814-3.03-2.887z" fill="#BC7546"/><path d="M97.656 109.77c.144.938.144 1.732.433 2.742.144.577 1.227 1.732 1.948 2.021.289.144.506.144.506.144s-1.516-1.515-1.805-2.886c-.288-1.372-1.37-2.959-1.443-3.103.072 0 .289.577.361 1.082z" fill="#F9C8A9"/><path d="M102.635 112.584c-.072.145-.794 1.949-1.732 2.959-.938 1.082-1.37 3.175-1.37 3.175s1.875-.938 2.381-1.948c.649-1.227.721-4.041.721-4.186z" fill="#BC7546"/><path d="M101.914 113.522c-.65.65-1.299 1.155-1.949 1.949-.433.505-.722 1.948-.505 2.742 0 .289.217.505.217.505s.36-2.093 1.371-3.175c.938-1.01 1.659-2.814 1.659-2.959-.144.072-.505.65-.793.938z" fill="#F9C8A9"/><path d="M97.656 112.657c.072.144.722 1.948.65 3.319 0 1.443 1.082 3.247 1.082 3.247s.794-1.948.505-3.03c-.36-1.299-2.165-3.464-2.237-3.536z" fill="#BC7546"/><path d="M97.728 113.811c-.072.938-.216 1.732-.216 2.742 0 .65.793 1.949 1.443 2.382.216.216.505.288.505.288s-1.082-1.804-1.082-3.247c0-1.371-.65-3.175-.65-3.32-.072.073.072.722 0 1.155z" fill="#F9C8A9"/><path d="M102.058 117.491c-.072.145-1.01 1.877-2.021 2.743-1.082.938-1.66 2.958-1.66 2.958s1.949-.721 2.599-1.659c.649-1.227 1.01-3.969 1.082-4.042z" fill="#BC7546"/><path d="M101.192 118.285c-.722.578-1.443.938-2.165 1.732-.433.433-.938 1.876-.794 2.67 0 .289.145.505.145.505s.577-2.02 1.659-2.958c1.011-.938 1.949-2.598 2.021-2.743-.072 0-.433.506-.866.794z" fill="#F9C8A9"/><path d="M97.079 116.986c0 .145.505 2.021.288 3.392-.216 1.443.722 3.32.722 3.32s1.01-1.805.794-2.959c-.144-1.371-1.732-3.681-1.804-3.753z" fill="#BC7546"/><path d="M97.079 118.141c-.217.938-.433 1.66-.505 2.742-.073.65.577 2.021 1.154 2.526.217.216.433.289.433.289s-.866-1.949-.722-3.32c.145-1.371-.288-3.247-.288-3.392-.072.072 0 .65-.072 1.155z" fill="#F9C8A9"/><path d="M100.759 122.182c-.072.144-1.299 1.66-2.454 2.309-1.226.722-2.165 2.598-2.165 2.598s2.021-.361 2.815-1.154c.866-.939 1.732-3.609 1.804-3.753z" fill="#BC7546"/><path d="M99.749 122.904c-.866.433-1.588.721-2.454 1.299-.505.36-1.227 1.659-1.299 2.453a.98.98 0 0 0 0 .505s.938-1.876 2.165-2.598c1.155-.721 2.382-2.237 2.454-2.309.072 0-.433.433-.866.65z" fill="#F9C8A9"/><path d="M95.996 120.811c0 .144.072 2.093-.36 3.392-.434 1.371.072 3.391.072 3.391s1.299-1.587 1.37-2.742c.073-1.371-1.082-3.969-1.082-4.041z" fill="#BC7546"/><path d="M95.708 121.966c-.361.866-.722 1.587-1.01 2.597-.145.578.216 2.093.649 2.67.144.289.36.361.36.361s-.505-2.092-.072-3.391.361-3.248.361-3.392c0 .072-.072.722-.288 1.155z" fill="#F9C8A9"/><path d="M98.738 126.584c-.072.072-1.587 1.371-2.886 1.876-1.371.505-2.598 2.165-2.598 2.165s2.093 0 3.03-.649c1.083-.866 2.382-3.32 2.454-3.392z" fill="#BC7546"/><path d="M97.656 127.089c-.866.289-1.66.433-2.67.794-.577.216-1.516 1.443-1.732 2.165-.144.288-.072.505-.072.505s1.299-1.66 2.598-2.165c1.299-.505 2.742-1.732 2.886-1.876 0 .072-.505.433-1.01.577z" fill="#F9C8A9"/><path d="M94.336 124.347c0 .144-.288 2.093-.938 3.247-.65 1.227-.505 3.392-.505 3.392s1.588-1.371 1.804-2.454c.289-1.371-.36-4.113-.36-4.185z" fill="#BC7546"/><path d="M93.831 125.429c-.505.794-1.01 1.444-1.443 2.382-.289.577-.216 2.092.144 2.742a.78.78 0 0 0 .29.433s-.145-2.093.504-3.392c.65-1.227.866-3.175.938-3.247 0 .072-.144.649-.433 1.082z" fill="#F9C8A9"/><path d="M95.419 130.914c-.144.072-1.876.938-3.247 1.082-1.444.145-3.103 1.516-3.103 1.516s2.02.505 3.103.072c1.299-.505 3.247-2.598 3.247-2.67z" fill="#BC7546"/><path d="M94.264 131.13c-.938.073-1.732 0-2.742.145-.65.072-1.804 1.01-2.165 1.732-.216.288-.216.505-.216.505s1.66-1.299 3.103-1.516c1.37-.144 3.103-1.01 3.247-1.082-.144 0-.722.216-1.227.216z" fill="#F9C8A9"/><path d="M91.666 127.666c-.072.145-.793 1.949-1.66 2.959-.938 1.083-1.298 3.175-1.298 3.175s1.876-.938 2.381-1.948c.577-1.227.577-4.041.577-4.186z" fill="#BC7546"/><path d="M90.945 128.605c-.65.649-1.3 1.154-1.949 1.948-.433.505-.721 2.021-.505 2.742 0 .289.217.505.217.505s.36-2.092 1.299-3.175c.938-1.01 1.66-2.814 1.66-2.959 0 .073-.361.65-.722.939z" fill="#F9C8A9"/><path d="M91.883 134.017c-.144.072-1.876.866-3.247 1.01-1.444.072-3.103 1.371-3.103 1.371s2.02.577 3.103.217c1.226-.506 3.175-2.526 3.247-2.598z" fill="#BC7546"/><path d="M90.728 134.233c-.938 0-1.732-.072-2.742.072-.65.073-1.876.939-2.237 1.66-.216.217-.216.505-.216.505s1.731-1.299 3.103-1.371c1.37-.072 3.103-.938 3.247-1.01-.072 0-.722.144-1.155.144z" fill="#F9C8A9"/><path d="M88.203 130.697c-.073.145-.866 1.877-1.804 2.887-1.01 1.01-1.444 3.103-1.444 3.103s1.877-.866 2.454-1.876c.65-1.227.794-4.042.794-4.114z" fill="#BC7546"/><path d="M87.481 131.563c-.722.65-1.299 1.083-2.02 1.877-.434.433-.794 1.948-.578 2.742a1 1 0 0 0 .144.505s.433-2.093 1.444-3.103c.938-1.01 1.732-2.742 1.804-2.887-.072.072-.433.578-.794.866z" fill="#F9C8A9"/><path d="M87.264 136.976c-.144 0-2.02.36-3.391.072-1.371-.289-3.392.505-3.392.505s1.732 1.082 2.887 1.01c1.37-.144 3.824-1.515 3.896-1.587z" fill="#BC7546"/><path d="M86.11 136.831c-.866-.216-1.66-.505-2.67-.721-.578-.073-2.093.433-2.598.938-.289.216-.36.433-.36.433s1.948-.794 3.39-.505c1.372.288 3.248-.073 3.392-.073-.072.073-.721.073-1.154-.072z" fill="#F9C8A9"/><path d="M84.667 132.79c-.073.144-1.3 1.588-2.526 2.309-1.227.722-2.237 2.598-2.237 2.598s2.02-.361 2.886-1.154c.939-1.011 1.877-3.681 1.877-3.753z" fill="#BC7546"/><path d="M83.728 133.44c-.865.433-1.587.649-2.453 1.226-.505.361-1.227 1.66-1.299 2.454a.983.983 0 0 0 0 .505s1.01-1.876 2.237-2.598 2.454-2.165 2.526-2.309a4.627 4.627 0 0 1-1.01.722z" fill="#F9C8A9"/><path d="M82.574 138.852c-.144 0-2.093 0-3.392-.505-1.299-.506-3.392-.145-3.392-.145s1.516 1.371 2.67 1.516c1.444.144 4.042-.794 4.114-.866z" fill="#BC7546"/><path d="M81.491 138.491c-.866-.433-1.515-.794-2.525-1.155-.578-.216-2.093.073-2.742.506a1.2 1.2 0 0 0-.434.36s2.093-.433 3.392.145c1.3.505 3.248.505 3.392.505-.072 0-.65-.145-1.083-.361z" fill="#F9C8A9"/><path d="M80.12 134.738c-.072.073-1.37 1.227-2.525 1.588-1.155.433-2.31 1.876-2.31 1.876s1.805 0 2.67-.577c.939-.649 2.093-2.814 2.165-2.887z" fill="#BC7546"/><path d="M79.11 135.171c-.794.217-1.443.361-2.31.722-.504.217-1.37 1.227-1.515 1.876-.072.289-.072.433-.072.433s1.155-1.443 2.31-1.876c1.154-.433 2.453-1.515 2.525-1.588 0 .073-.505.361-.938.433z" fill="#F9C8A9"/><path d="M78.1 140.079c-.072 0-.938-.506-1.444-1.011-.505-.577-1.587-.794-1.587-.794s.433 1.011.938 1.299c.577.361 2.02.506 2.093.506z" fill="#BC7546"/><path d="M77.595 139.718c-.289-.361-.505-.722-.939-1.083-.216-.216-1.01-.433-1.37-.361-.145 0-.29.073-.29.073s1.083.288 1.588.793c.505.506 1.371.939 1.444 1.011 0-.072-.217-.289-.433-.433z" fill="#F9C8A9"/><path d="M61.502 72.029c-14.577 2.958-25.69 11.69-31.968 22.226-5.196 8.66-5.918 15.659-3.68 23.958 10.535 41.783 25.545 19.845 45.607 40.195.144.144.144.433 0 .505l-1.516 1.443a.348.348 0 0 1-.505 0c-12.412-12.412-22.01-7.721-31.896-14.577-8.37-5.917-11.98-18.257-14.288-28.576-2.237-10.103.793-19.051 7.216-27.567.36-.505 1.588-1.948 1.804-2.164 7.866-8.516 17.03-14 29.226-15.443zM18.349 83.863c-.073.433-1.01 6.495-.073 10.68.939 4.402-1.37 10.609-1.37 10.609s-3.537-5.485-3.32-9.093c.36-4.258 4.618-11.98 4.763-12.196z" fill="#BC7546"/><path d="M18.854 87.544c.794 2.814 1.732 5.123 2.309 8.37.36 1.949-1.227 6.495-2.887 8.227-.577.794-1.299 1.083-1.299 1.083s2.31-6.279 1.372-10.608c-.939-4.258 0-10.248.072-10.68-.072.216 0 2.164.433 3.608z" fill="#F9C8A9"/><path d="M27.585 91.152c-.144.433-2.092 6.206-1.948 10.536.144 4.474-3.175 10.247-3.175 10.247s-2.526-5.99-1.66-9.526c1.01-4.257 6.64-11.04 6.784-11.257z" fill="#BC7546"/><path d="M27.441 94.832c.289 2.887.794 5.34.794 8.66 0 1.948-2.381 6.134-4.33 7.577-.722.722-1.443.794-1.443.794s3.392-5.773 3.175-10.247c-.144-4.33 1.804-10.103 1.948-10.464 0 .289-.288 2.165-.144 3.68z" fill="#F9C8A9"/><path d="M9.184 95.41c.144.36 2.453 4.979 5.123 7.504 2.815 2.598 4.186 8.083 4.186 8.083s-5.124-2.165-6.711-4.763c-1.876-3.103-2.526-10.608-2.598-10.825z" fill="#BC7546"/><path d="M11.349 97.719c1.948 1.587 3.68 2.742 5.7 4.763 1.155 1.154 2.238 5.123 1.95 7.144 0 .866-.434 1.371-.434 1.371s-1.443-5.485-4.185-8.083c-2.67-2.525-4.98-7.216-5.124-7.505.072.145 1.082 1.516 2.093 2.31z" fill="#F9C8A9"/><path d="M7.596 108.615c0 .073 0 .073 0 0 .217.289 3.753 4.547 7.145 6.423 3.535 1.948 6.35 7.216 6.35 7.216s-5.773-.866-8.082-3.175c-2.743-2.67-5.34-10.175-5.413-10.464z" fill="#BC7546"/><path d="M10.339 110.492c2.38 1.154 4.474 1.876 7 3.463 1.515.939 3.608 4.691 3.752 6.856.216.866-.072 1.515-.072 1.515s-2.815-5.268-6.35-7.216c-3.392-1.948-6.856-6.134-7.145-6.422.289.144 1.588 1.226 2.815 1.804z" fill="#F9C8A9"/><path d="M20.008 103.42c0 .072 0 .072 0 0 0 .433.506 6.783 2.454 10.824 1.948 4.186 1.154 11.041 1.154 11.041s-4.834-4.691-5.484-8.371c-.794-4.402 1.732-13.206 1.876-13.494z" fill="#BC7546"/><path d="M21.307 107.028c1.444 2.67 2.959 4.763 4.258 7.938.794 1.876.216 6.855-1.01 8.948-.361.938-1.083 1.371-1.083 1.371s.866-6.855-1.154-11.041c-1.877-4.041-2.382-10.391-2.382-10.824.145.288.65 2.237 1.371 3.608z" fill="#F9C8A9"/><path d="M8.174 129.326c.433.145 6.422 2.237 10.896 2.093 4.619-.144 10.608 3.319 10.608 3.319s-6.278 2.598-9.886 1.66c-4.402-1.01-11.402-6.855-11.618-7.072z" fill="#BC7546"/><path d="M11.998 129.543c3.031-.289 5.485-.794 8.949-.794 2.02 0 6.35 2.453 7.865 4.474.722.722.866 1.515.866 1.515s-5.917-3.463-10.608-3.319c-4.474.144-10.463-1.948-10.896-2.093.216.072 2.237.361 3.824.217z" fill="#F9C8A9"/><path d="M20.947 122.759c.216.361 3.463 5.846 7 8.588 3.68 2.886 5.989 9.381 5.989 9.381s-6.423-2.021-8.66-5.051c-2.67-3.609-4.33-12.629-4.33-12.918z" fill="#BC7546"/><path d="M23.76 125.357c2.526 1.732 4.764 2.887 7.361 5.196 1.516 1.299 3.248 5.99 3.104 8.515.072 1.011-.361 1.732-.361 1.732s-2.31-6.494-5.99-9.381c-3.536-2.742-6.783-8.227-7-8.587.217.144 1.588 1.659 2.887 2.525z" fill="#F9C8A9"/><path d="M35.018 121.388c.072.433.578 6.784 2.598 10.825 2.02 4.185 1.3 11.041 1.3 11.041s-4.908-4.619-5.557-8.299c-.866-4.474 1.587-13.278 1.66-13.567z" fill="#BC7546"/><path d="M36.39 124.996c1.515 2.598 3.03 4.691 4.401 7.866.794 1.876.361 6.856-.938 9.021-.36.938-1.082 1.371-1.082 1.371s.794-6.856-1.3-11.041c-1.948-4.041-2.525-10.32-2.525-10.753.144.217.65 2.165 1.443 3.536z" fill="#F9C8A9"/><path d="M44.616 127.306c.072.433.577 6.783 2.598 10.824 2.02 4.186 1.299 11.041 1.299 11.041s-4.907-4.618-5.557-8.299c-.866-4.474 1.588-13.278 1.66-13.566z" fill="#BC7546"/><path d="M45.987 130.842c1.516 2.598 3.031 4.69 4.402 7.865.794 1.877.361 6.856-.938 9.021-.36.938-1.082 1.371-1.082 1.371s.793-6.856-1.3-11.041c-1.948-4.041-2.525-10.319-2.525-10.752.144.216.65 2.165 1.443 3.536z" fill="#F9C8A9"/><path d="M15.823 143.759c.072 0 .072 0 0 0 .505.072 7 1.154 11.618.289 4.763-.939 11.546 1.659 11.546 1.659s-5.99 3.753-9.886 3.464c-4.69-.433-12.99-5.268-13.278-5.412z" fill="#BC7546"/><path d="M19.864 143.326c3.03-.866 5.557-1.804 9.165-2.382 2.093-.36 7 1.444 8.876 3.32.866.649 1.154 1.443 1.154 1.443s-6.783-2.598-11.546-1.66c-4.618.939-11.113-.144-11.618-.288.216 0 2.381 0 3.969-.433z" fill="#F9C8A9"/><path d="M35.018 158.913c.361-.144 5.63-2.093 8.66-4.69 3.103-2.743 9.165-3.681 9.165-3.681s-2.815 5.268-5.846 6.711c-3.608 1.66-11.762 1.66-11.979 1.66z" fill="#BC7546"/><path d="M37.76 156.82c1.877-1.876 3.32-3.68 5.701-5.628 1.372-1.155 5.773-1.877 7.866-1.299.938.072 1.444.577 1.444.577s-6.062.938-9.165 3.68c-2.959 2.598-8.227 4.547-8.588 4.691.217-.072 1.732-1.01 2.742-2.021z" fill="#F9C8A9"/><path d="M67.347 63.225c-.36.144-5.34 2.237-8.154 4.835-2.887 2.742-8.66 3.824-8.66 3.824s2.526-5.195 5.34-6.639c3.464-1.732 11.258-2.02 11.474-2.02z" fill="#BC7546"/><path d="M64.822 65.317c-1.732 1.877-3.031 3.68-5.268 5.557-1.3 1.155-5.485 2.02-7.505 1.588-.866-.073-1.371-.505-1.371-.505s5.773-1.155 8.66-3.825c2.814-2.598 7.72-4.69 8.081-4.835-.216.072-1.66 1.01-2.597 2.02z" fill="#F9C8A9"/><path d="M55.296 60.41c-.216.361-3.103 4.907-3.824 8.66-.794 3.897-4.835 8.154-4.835 8.154s-.938-5.7.505-8.515c1.732-3.464 7.938-8.154 8.154-8.299z" fill="#BC7546"/><path d="M54.358 63.513c-.36 2.526-.36 4.763-1.082 7.578-.433 1.66-3.32 4.835-5.268 5.628-.722.433-1.444.433-1.444.433s4.042-4.257 4.835-8.154c.722-3.753 3.608-8.299 3.825-8.66 0 .289-.65 1.877-.866 3.175z" fill="#F9C8A9"/><path d="M45.626 64.885c-.072.288-1.299 4.474-1.01 7.577.289 3.175-1.876 7.432-1.876 7.432s-2.02-4.185-1.516-6.71c.506-3.104 4.258-8.155 4.402-8.3z" fill="#BC7546"/><path d="M45.626 67.555c.361 2.02.794 3.752.866 6.133.072 1.371-1.443 4.474-2.814 5.557-.505.505-1.01.65-1.01.65s2.164-4.186 1.876-7.433c-.289-3.103.938-7.217 1.01-7.505 0 .144-.072 1.515.072 2.598z" fill="#F9C8A9"/><path d="M65.255 74.987c-.361.073-4.835 1.3-7.577 3.248-2.815 2.02-7.938 2.309-7.938 2.309s2.742-4.185 5.34-5.124c3.247-1.082 9.958-.433 10.175-.433z" fill="#BC7546"/><path d="M62.873 76.503c-1.732 1.443-3.03 2.814-5.195 4.185-1.227.866-4.98 1.083-6.712.505a2.432 2.432 0 0 1-1.154-.577s5.123-.289 7.938-2.31c2.67-1.948 7.216-3.174 7.577-3.246-.217 0-1.588.649-2.454 1.443z" fill="#F9C8A9"/><path d="M51.471 72.245c-.216.289-3.319 4.402-4.33 7.866-1.082 3.608-5.267 7.36-5.267 7.36s-.433-5.484 1.154-8.082c1.949-3.103 8.227-7.072 8.444-7.144z" fill="#BC7546"/><path d="M50.317 75.132c-.505 2.381-.722 4.474-1.66 7.144-.505 1.587-3.536 4.33-5.412 4.907-.722.36-1.371.289-1.371.289s4.185-3.753 5.268-7.361c1.01-3.536 4.113-7.577 4.33-7.866-.145.144-.866 1.66-1.155 2.887z" fill="#F9C8A9"/><path d="M54.142 84.224c-.361.145-4.98 2.31-7.578 4.907-2.67 2.67-8.082 3.97-8.082 3.97s2.237-5.052 4.835-6.567c3.175-1.805 10.608-2.31 10.825-2.31z" fill="#BC7546"/><path d="M51.832 86.245c-1.587 1.876-2.742 3.608-4.834 5.484-1.227 1.155-5.124 2.093-7.145 1.732-.866 0-1.37-.433-1.37-.433s5.484-1.299 8.082-3.969c2.525-2.598 7.216-4.763 7.577-4.907-.145.144-1.516 1.082-2.31 2.093z" fill="#F9C8A9"/><path d="M33.286 72.534c0 .433-.072 6.855 1.444 11.185 1.587 4.474.144 11.258.144 11.258s-4.474-5.196-4.763-9.02c-.36-4.475 3.031-13.135 3.175-13.423z" fill="#BC7546"/><path d="M34.297 76.286c1.227 2.815 2.526 5.052 3.608 8.443.65 1.949-.36 6.928-1.876 9.02-.506.939-1.227 1.3-1.227 1.3s1.515-6.856-.144-11.258c-1.588-4.257-1.444-10.68-1.444-11.185.072.216.433 2.237 1.083 3.68z" fill="#F9C8A9"/><path d="M42.523 80.833c-.216.433-3.247 6.061-3.824 10.608-.578 4.69-5.052 10.102-5.052 10.102s-1.587-6.71-.072-10.175c1.732-4.257 8.732-10.319 8.948-10.535z" fill="#BC7546"/><path d="M41.73 84.657c-.145 3.103-.073 5.701-.65 9.165-.36 2.02-3.536 5.99-5.773 7.144-.866.577-1.66.577-1.66.577s4.474-5.412 5.052-10.103c.577-4.546 3.608-10.174 3.824-10.607-.072.288-.721 2.237-.794 3.824z" fill="#F9C8A9"/><path d="M47.43 95.049c-.288.288-4.546 3.896-6.494 7.36-1.949 3.608-7.289 6.567-7.289 6.567s.866-5.917 3.175-8.299c2.743-2.814 10.32-5.556 10.608-5.628z" fill="#BC7546"/><path d="M45.554 97.863c-1.154 2.454-1.876 4.546-3.392 7.216-.938 1.516-4.762 3.753-6.927 3.969-.866.217-1.516-.072-1.516-.072s5.34-2.959 7.289-6.567c1.876-3.464 6.134-7.144 6.495-7.36-.217.144-1.371 1.515-1.949 2.814z" fill="#F9C8A9"/><path d="M28.524 93.1c.072.361 1.226 4.98 3.175 7.722 2.02 2.886 2.237 8.082 2.237 8.082s-4.186-2.887-5.124-5.557c-1.082-3.175-.36-10.03-.288-10.247z" fill="#BC7546"/><path d="M29.967 95.554c1.443 1.804 2.814 3.175 4.185 5.34.794 1.299 1.083 5.051.361 6.783-.144.794-.65 1.155-.65 1.155s-.216-5.196-2.236-8.082c-1.949-2.743-3.103-7.361-3.175-7.722.144.217.793 1.66 1.515 2.526z" fill="#F9C8A9"/><path d="M42.451 107.172c-.289.217-3.825 3.392-5.34 6.423-1.588 3.103-6.062 5.773-6.062 5.773s.578-5.052 2.526-7.144c2.237-2.454 8.66-4.98 8.876-5.052z" fill="#BC7546"/><path d="M40.936 109.626c-.866 2.092-1.444 3.969-2.742 6.206-.722 1.299-3.97 3.319-5.846 3.536-.721.216-1.299 0-1.299 0s4.474-2.67 6.062-5.773c1.515-3.031 5.124-6.206 5.34-6.423-.144.217-1.01 1.371-1.515 2.454z" fill="#F9C8A9"/><path d="M31.555 105.801c-.073.433-1.516 6.856-.794 11.474.721 4.763-2.165 11.33-2.165 11.33s-3.392-6.134-2.887-9.959c.505-4.618 5.629-12.556 5.846-12.845z" fill="#BC7546"/><path d="M31.771 109.77c.65 3.103 1.515 5.557 1.876 9.165.217 2.092-1.804 6.855-3.68 8.587-.65.866-1.443 1.083-1.443 1.083s2.886-6.567 2.165-11.33c-.65-4.619.721-11.041.793-11.474.073.289 0 2.381.289 3.969z" fill="#F9C8A9"/><path d="M70.188 125.579c-.73 0-1.303-.052-1.72-.156-.416-.091-.735-.235-.956-.43a1.388 1.388 0 0 1-.41-.722 5.297 5.297 0 0 1-.079-.977c0-.755.059-1.322.176-1.699.117-.391.345-.664.684-.821.338-.156.761-.234 1.27-.234.676 0 1.347-.033 2.011-.098a15.38 15.38 0 0 0 1.934-.312 6.626 6.626 0 0 0 2.246-.84c.664-.404 1.126-.872 1.387-1.406.273-.534.41-1.048.41-1.543 0-.99-.313-1.719-.938-2.188-.612-.468-1.51-.703-2.695-.703h-1.406c-.586 0-.984-.065-1.192-.195a.73.73 0 0 1-.332-.391c-.052-.169-.078-.41-.078-.722 0-.651.046-1.244.137-1.778.104-.534.247-.97.43-1.308.156-.287.37-.469.644-.547.273-.091.631-.137 1.074-.137h.645c.924 0 1.653-.13 2.187-.391.547-.273.905-.592 1.074-.957.17-.377.254-.716.254-1.015 0-.677-.214-1.211-.644-1.602-.43-.39-1.068-.586-1.914-.586-.743 0-1.374.091-1.895.274a6.39 6.39 0 0 0-1.504.722 5.575 5.575 0 0 0-.449.293c-.143.091-.293.183-.45.274a2.53 2.53 0 0 1-.468.195c-.17.052-.352.078-.547.078-.377 0-.683-.097-.918-.293a6.996 6.996 0 0 1-.683-.703c-.534-.625-.801-1.217-.801-1.777 0-.56.365-1.1 1.094-1.621.729-.521 1.562-.977 2.5-1.368a10.53 10.53 0 0 1 2.148-.644c.755-.156 1.745-.234 2.969-.234 1.445 0 2.754.293 3.926.879 1.172.572 2.011 1.321 2.52 2.246.507.924.76 1.881.76 2.871 0 1.054-.175 1.979-.526 2.773-.339.781-.75 1.38-1.231 1.797a7.347 7.347 0 0 1-1.445.996c1.12.482 1.998 1.192 2.636 2.129.639.924.958 2.148.958 3.672 0 1.536-.34 2.877-1.016 4.023a8.045 8.045 0 0 1-2.598 2.735 12.856 12.856 0 0 1-3.457 1.582c-1.25.377-2.35.612-3.3.703-.938.104-1.745.156-2.422.156z" fill="#fff"/></svg>